Coordinates
version=1
nRows=15
nColumns=19
inDegrees=yes

Units are S.I. units (second, meters, Newtons, ...)
If the header above contains a line with 'inDegrees', this indicates whether rotational values are in degrees (yes) or radians (no).

endheader
time	pelvis_tilt	pelvis_list	pelvis_rotation	pelvis_tx	pelvis_ty	pelvis_tz	hip_flexion_r	hip_adduction_r	hip_rotation_r	knee_angle_r	knee_angle_r_beta	ankle_angle_r	hip_flexion_l	hip_adduction_l	hip_rotation_l	knee_angle_l	knee_angle_l_beta	ankle_angle_l
     16.82000000	     -6.97004843	      4.22294957	      4.85924878	      2.19318599	      1.06830468	      1.01877333	     -6.17109156	     -7.51672407	     -7.90025670	     44.68781147	      0.77994945	    -20.01171695	     27.42995562	      7.11397368	     -5.10769703	     18.28199814	      0.31908106	      7.28196188
     16.82666667	     -6.02073430	      4.43250343	      5.07878304	      2.19305930	      1.06408425	      1.01875552	     -6.57450900	     -7.85955186	     -7.88455742	     47.04170378	      0.82103262	    -19.43821101	     27.31943861	      7.04110230	     -5.65614319	     21.21343285	      0.37024425	      7.19906930
     16.83333333	     -5.88054444	      4.17345295	      5.13182763	      2.19237435	      1.05837059	      1.01896836	     -5.76845886	     -7.71270036	     -7.32749785	     49.70061206	      0.86743932	    -18.88898251	     28.31428832	      6.41934446	     -6.26127982	     24.67945252	      0.43073770	      7.40469297
     16.84000000	     -5.33573743	      4.11502156	      5.21887742	      2.19165460	      1.05290876	      1.01923924	     -5.40522484	     -7.78789161	     -7.01959694	     52.33390301	      0.91339892	    -18.35153405	     28.73517915	      5.99968336	     -6.71539770	     28.04018622	      0.48939357	      7.77000257
     16.84666667	     -4.68444684	      4.04621964	      5.25401896	      2.19076067	      1.04741240	      1.01961072	     -5.07644965	     -7.82785574	     -6.65130622	     54.96216712	      0.95927078	    -17.82517420	     28.96695134	      5.55827695	     -7.06550998	     31.35036014	      0.54716701	      8.43014471
     16.85333333	     -4.10538870	      3.97799199	      5.27857465	      2.18963556	      1.04171103	      1.02008441	     -4.56016212	     -7.87399575	     -6.27971617	     57.66003403	      1.00635744	    -17.28007304	     29.18601667	      5.14876633	     -7.27928956	     34.54927088	      0.60299853	      9.37596600
     16.86000000	     -3.65545396	      3.92605172	      5.30318345	      2.18827536	      1.03584947	      1.02054831	     -3.80915881	     -7.96664419	     -5.93299635	     60.39198951	      1.05403906	    -16.70461331	     29.43848127	      4.81883152	     -7.34421982	     37.58689591	      0.65601509	     10.59515910
     16.86666667	     -2.74934546	      4.16693583	      5.40627666	      2.18684140	      1.03079282	      1.02093509	     -3.58995565	     -8.38268413	     -5.84267708	     62.99496165	      1.09946949	    -16.25101753	     28.95099007	      4.85716338	     -7.28073735	     40.21608235	      0.70190305	     12.01945552
     16.87333333	     -2.88356720	      3.89622061	      5.31321579	      2.18504094	      1.02442850	      1.02163660	     -1.92654113	     -8.19179399	     -5.17024256	     65.79817840	      1.14839485	    -15.41012389	     29.65278764	      4.37486126	     -7.19641269	     42.93343163	      0.74932974	     13.73473649
     16.88000000	     -2.20679150	      4.08994605	      5.37922430	      2.18333535	      1.01954095	      1.02207277	     -1.29454075	     -8.57846616	     -5.03977088	     68.32985624	      1.19258097	    -14.72795239	     29.13836505	      4.44874590	     -7.00474897	     45.08983582	      0.78696609	     15.54679218
     16.88666667	     -2.62961091	      3.99654586	      5.32313266	      2.18141012	      1.01356747	      1.02271004	      0.79871088	     -8.59716571	     -4.43103611	     71.01856771	      1.23950784	    -13.88912951	     29.76606244	      4.27880148	     -6.82118548	     47.13942607	      0.82273819	     17.33420141
     16.89333333	     -2.14022777	      4.17981109	      5.38473969	      2.17970699	      1.00929778	      1.02315165	      1.74202832	     -8.97703457	     -4.29501727	     73.34082765	      1.28003892	    -13.11885766	     29.11286189	      4.39982376	     -6.58896300	     48.71918202	      0.85031014	     19.20099130
     16.90000000	     -2.84210911	      4.19350439	      5.25851005	      2.17788119	      1.00396054	      1.02381348	      4.24631119	     -9.15236395	     -3.67554552	     75.80401576	      1.32302966	    -12.23412267	     29.66454976	      4.36943481	     -6.46722449	     50.13769824	      0.87506791	     20.83104227
     16.90666667	     -3.08455772	      4.30005635	      5.19122284	      2.17627900	      0.99984933	      1.02434154	      6.17179066	     -9.45607795	     -3.30651154	     77.95006445	      1.36048528	    -11.40321929	     29.49036935	      4.43600197	     -6.32190879	     51.18740138	      0.89338869	     22.42005628
     16.91333333	     -3.37506033	      4.37678619	      5.10563976	      2.17486636	      0.99630103	      1.02484001	      8.16202745	     -9.73681904	     -2.97011932	     79.88001422	      1.39416925	    -10.60321815	     29.20274059	      4.47088594	     -6.19074684	     51.96888631	      0.90702817	     23.85715300
